<svg xmlns="http://www.w3.org/2000/svg" viewBox="0 0 305.58 51.05">
  <defs>
    <style>
      .purescript-logo {
        fill: #14161a;
      }
      @media (prefers-color-scheme: dark) {
        .purescript-logo {
          fill: white;
        }
      }
    </style>
  </defs>
  <path class="purescript-logo" d="M58.81 43.67l-6.46-6.04H23.96l6.47 6.04h28.38zM30.43 22.51l-6.46 6.04h28.38l6.46-6.04H30.43zM58.81 13.42l-6.46-6.04H23.97l6.46 6.04h28.38zM21 19.39l-4.27-4.27L.88 31a3 3 0 000 4.27l15.83 15.78L21 46.78 7.28 33.09zM81.9 15.83L66.07 0 61.8 4.27 75.49 18 61.8 31.66l4.27 4.27L81.9 20.1a3 3 0 000-4.27M116.37 17.24a6.26 6.26 0 012 5.08q0 3.43-2 5c-1.35 1.06-3.4 1.59-6.17 1.59h-3.35v5.54h-3.19V15.6h6.48c2.87 0 5 .55 6.27 1.64m-2.3 7.76a4.14 4.14 0 001-3 3 3 0 00-1.22-2.76 7 7 0 00-3.8-.81h-3.24v7.56h3.7q2.64 0 3.6-1M129.57 30.15a4.83 4.83 0 007 0 6.13 6.13 0 001.31-4.15V15.6h3.19v10.58a8.43 8.43 0 01-2.24 6.28 8.61 8.61 0 01-11.5 0 8.39 8.39 0 01-2.24-6.28V15.6h3.18V26a6.08 6.08 0 001.3 4.11M164.37 21.73q0 4.66-4.08 5.88l5 6.86h-4.05l-4.51-6.35h-4.19v6.35h-3.18V15.6h7c2.88 0 5 .48 6.19 1.45a5.59 5.59 0 011.86 4.68m-4.24 2.67a3.38 3.38 0 001-2.69 2.9 2.9 0 00-1-2.54 6.69 6.69 0 00-3.57-.68h-4v6.75h4c1.8 0 3-.28 3.67-.84M185.46 15.6v2.99h-10.07v5h9.04v2.83h-9.04v5.05h10.39v3H172.2V15.6h13.26zM198.81 18.08a4.14 4.14 0 00-2.28.57 1.89 1.89 0 00-.89 1.71 2 2 0 00.89 1.76 13.66 13.66 0 003.79 1.31 10.27 10.27 0 014.38 2 4.66 4.66 0 011.47 3.74 5 5 0 01-1.86 4 7.49 7.49 0 01-4.89 1.53 11.47 11.47 0 01-7.86-3.05l2-2.4a9 9 0 005.94 2.48 4 4 0 002.44-.66 2 2 0 00.91-1.75 2 2 0 00-.85-1.7 8.84 8.84 0 00-2.93-1.11 25.37 25.37 0 01-3.16-.92 7.2 7.2 0 01-1.91-1.11 4.56 4.56 0 01-1.67-3.89 4.75 4.75 0 011.9-4 7.7 7.7 0 014.71-1.41 11.16 11.16 0 013.59.59 9.4 9.4 0 013.08 1.67l-1.7 2.41a6.25 6.25 0 00-2.27-1.24 8.55 8.55 0 00-2.82-.49M222 31.58a6.69 6.69 0 002.8-.58 9.75 9.75 0 002.48-1.77l2.05 2.1a9.4 9.4 0 01-7.27 3.32 9.72 9.72 0 01-7.1-2.75 9.31 9.31 0 01-2.83-7 9.43 9.43 0 012.88-7 10 10 0 017.26-2.8 9.49 9.49 0 017.33 3.24l-2 2.21a8.9 8.9 0 00-2.6-1.77 7.22 7.22 0 00-2.83-.51 6.71 6.71 0 00-4.8 1.85 6.22 6.22 0 00-2 4.72 6.53 6.53 0 001.94 4.81 6.22 6.22 0 004.69 1.93M251.53 21.73q0 4.66-4.08 5.88l4.94 6.86h-4l-4.51-6.35h-4.19v6.35h-3.18V15.6h7q4.32 0 6.18 1.45a5.57 5.57 0 011.87 4.68m-4.24 2.67a3.41 3.41 0 001-2.69 2.87 2.87 0 00-1-2.54 6.62 6.62 0 00-3.56-.68h-4v6.75h4c1.79 0 3-.28 3.67-.84M259.36 15.6h3.19v18.87h-3.19zM283.77 17.24a6.26 6.26 0 012 5.08q0 3.43-2 5t-6.16 1.59h-3.35v5.54H271V15.6h6.48q4.29 0 6.27 1.64M281.51 25a4.14 4.14 0 001-3 3.07 3.07 0 00-1.22-2.76 7 7 0 00-3.8-.81h-3.24v7.56h3.7q2.64 0 3.6-1M299.86 18.51v15.96h-3.19V18.51h-5.72V15.6h14.63v2.91h-5.72z"/>
</svg>
